<svg id="svg" version="1.1" xmlns="http://www.w3.org/2000/svg" xmlns:xlink="http://www.w3.org/1999/xlink" width="400" height="400" viewBox="0, 0, 400,400"><g id="svgg"><path id="path0" d="M196.985 73.793 C 194.100 74.443,196.390 73.139,120.600 117.312 C 91.454 134.299,92.173 133.824,90.260 137.395 L 89.400 139.000 89.294 198.976 C 89.198 252.818,89.252 259.175,89.823 261.139 C 90.963 265.059,92.374 266.067,115.635 279.577 C 127.166 286.274,141.910 294.845,148.400 298.624 C 200.395 328.894,195.215 326.049,198.800 326.301 C 202.117 326.534,203.688 325.944,211.006 321.717 C 214.083 319.940,219.840 316.611,223.800 314.318 C 227.760 312.026,236.400 307.026,243.000 303.208 C 249.600 299.389,259.230 293.810,264.400 290.809 C 269.570 287.808,280.620 281.416,288.956 276.604 C 305.488 267.060,307.404 265.756,309.079 262.908 L 310.200 261.000 310.200 200.000 L 310.200 139.000 309.014 136.859 C 308.179 135.352,307.113 134.214,305.414 133.018 C 302.508 130.971,280.350 118.120,267.800 111.203 C 264.500 109.384,258.740 106.054,255.000 103.802 C 249.640 100.574,223.317 85.347,207.800 76.497 C 202.967 73.741,200.242 73.060,196.985 73.793 M205.000 88.968 C 207.866 90.299,213.025 93.215,234.400 105.586 C 241.110 109.470,248.130 113.519,250.000 114.584 C 253.782 116.738,276.569 129.962,286.800 135.941 C 290.430 138.062,294.239 140.608,295.264 141.599 C 298.639 144.860,298.426 140.701,298.306 200.822 L 298.200 253.800 297.320 255.445 C 295.724 258.428,292.776 260.430,274.740 270.779 C 264.983 276.377,245.930 287.340,232.400 295.141 C 200.881 313.314,203.043 312.202,199.248 312.190 C 195.450 312.177,198.017 313.512,166.400 295.109 C 152.430 286.977,133.356 275.886,124.013 270.462 C 104.920 259.377,102.984 257.942,101.837 254.027 C 100.909 250.860,100.863 148.874,101.789 145.773 C 102.946 141.892,104.146 140.921,117.200 133.309 C 158.796 109.052,191.947 89.833,193.894 88.848 C 197.726 86.908,200.628 86.939,205.000 88.968 M160.834 127.634 C 155.396 128.701,154.932 129.703,150.376 150.200 C 145.483 172.210,144.982 171.487,165.600 172.151 C 182.352 172.690,217.918 172.706,233.800 172.180 C 253.593 171.525,253.075 172.422,247.466 148.557 C 243.103 129.992,242.431 128.668,236.836 127.607 C 234.183 127.104,163.407 127.129,160.834 127.634 M177.833 178.593 C 173.273 180.218,172.946 183.628,176.449 193.000 C 180.105 202.782,180.388 205.282,179.007 215.600 C 176.887 231.440,177.464 231.803,204.000 231.329 C 220.804 231.029,221.163 230.678,219.601 216.073 C 218.415 204.992,218.550 203.276,221.201 195.696 C 225.780 182.598,225.610 179.951,220.088 178.418 C 217.640 177.738,179.793 177.895,177.833 178.593 M143.973 189.172 C 141.682 189.619,139.502 191.041,129.839 198.397 C 116.343 208.670,116.107 209.361,122.354 220.263 C 123.848 222.868,130.079 233.730,136.201 244.400 C 142.323 255.070,148.338 265.561,149.566 267.713 C 154.908 277.070,157.680 278.859,165.889 278.244 C 170.481 277.899,172.926 276.868,176.651 273.706 C 193.247 259.616,193.924 255.686,181.898 243.276 C 172.505 233.582,171.642 231.871,171.580 222.800 C 171.451 203.854,171.279 203.477,159.277 195.739 C 149.589 189.493,147.322 188.520,143.973 189.172 M249.077 189.567 C 248.020 189.992,243.790 192.580,239.677 195.318 C 227.455 203.455,227.621 203.167,227.156 216.966 C 226.605 233.330,226.867 232.655,217.245 242.568 C 204.597 255.599,205.192 259.485,222.009 273.677 C 230.042 280.456,240.850 279.876,245.787 272.400 C 248.102 268.894,277.905 216.689,278.851 214.482 C 281.279 208.816,279.926 206.885,266.400 196.726 C 255.529 188.560,253.582 187.756,249.077 189.567 " stroke="none" fill="#070605" fill-rule="evenodd"></path><path id="path1" d="M179.813 4.274 C 177.600 4.373,175.991 4.639,175.613 4.969 C 175.239 5.295,173.360 5.615,170.800 5.787 C 168.335 5.954,166.352 6.284,166.000 6.587 C 165.648 6.891,163.665 7.221,161.200 7.387 C 158.366 7.579,156.782 7.866,156.330 8.271 C 155.959 8.602,154.528 8.967,153.130 9.087 C 151.738 9.206,150.325 9.542,149.990 9.833 C 149.654 10.124,148.574 10.484,147.590 10.634 C 146.605 10.784,145.498 11.168,145.130 11.488 C 144.761 11.809,143.321 12.168,141.930 12.287 C 140.538 12.406,139.117 12.749,138.771 13.050 C 138.425 13.350,137.302 13.711,136.275 13.852 C 135.249 13.992,134.205 14.353,133.955 14.654 C 133.706 14.954,133.188 15.200,132.805 15.200 C 132.422 15.200,131.648 15.561,131.087 16.003 C 130.525 16.445,129.243 16.919,128.237 17.057 C 127.232 17.195,126.205 17.553,125.955 17.854 C 125.706 18.154,125.188 18.400,124.805 18.400 C 124.422 18.400,123.648 18.761,123.087 19.203 C 122.525 19.645,121.234 20.120,120.217 20.260 C 119.007 20.426,118.230 20.770,117.970 21.257 C 117.721 21.721,117.133 22.000,116.400 22.000 C 115.638 22.000,115.079 22.279,114.800 22.800 C 114.521 23.321,113.962 23.600,113.200 23.600 C 112.438 23.600,111.879 23.879,111.600 24.400 C 111.321 24.921,110.762 25.200,110.000 25.200 C 109.238 25.200,108.679 25.479,108.400 26.000 C 108.121 26.521,107.562 26.800,106.800 26.800 C 106.038 26.800,105.479 27.079,105.200 27.600 C 104.946 28.074,104.362 28.400,103.766 28.400 C 103.158 28.400,102.191 28.953,101.319 29.800 C 100.526 30.570,99.536 31.200,99.120 31.200 C 98.703 31.200,97.945 31.650,97.435 32.200 C 96.925 32.750,96.117 33.200,95.639 33.200 C 95.160 33.200,94.020 33.920,93.104 34.800 C 92.188 35.680,91.108 36.400,90.704 36.400 C 90.300 36.400,89.220 37.120,88.304 38.000 C 87.388 38.880,86.314 39.600,85.917 39.600 C 85.520 39.600,84.088 40.680,82.735 42.000 C 81.382 43.320,79.948 44.400,79.549 44.400 C 79.150 44.400,76.977 46.200,74.721 48.400 C 72.465 50.600,70.298 52.400,69.905 52.400 C 68.970 52.400,52.400 68.970,52.400 69.905 C 52.400 70.298,50.600 72.465,48.400 74.721 C 46.200 76.977,44.400 79.133,44.400 79.512 C 44.400 79.891,43.590 81.071,42.600 82.135 C 41.610 83.198,40.799 84.367,40.798 84.734 C 40.797 85.100,39.807 86.427,38.598 87.683 C 37.389 88.938,36.400 90.297,36.400 90.702 C 36.400 91.107,35.680 92.188,34.800 93.104 C 33.920 94.020,33.200 95.160,33.200 95.639 C 33.200 96.117,32.750 96.925,32.200 97.435 C 31.650 97.945,31.200 98.703,31.200 99.120 C 31.200 99.536,30.570 100.526,29.800 101.319 C 28.953 102.191,28.400 103.158,28.400 103.766 C 28.400 104.362,28.074 104.946,27.600 105.200 C 27.154 105.438,26.800 106.038,26.800 106.552 C 26.800 107.060,26.440 107.802,26.000 108.200 C 25.560 108.598,25.200 109.318,25.200 109.800 C 25.200 110.282,24.840 111.002,24.400 111.400 C 23.960 111.798,23.600 112.630,23.600 113.248 C 23.600 113.962,23.309 114.528,22.800 114.800 C 22.279 115.079,22.000 115.638,22.000 116.400 C 22.000 117.133,21.721 117.721,21.257 117.970 C 20.770 118.230,20.426 119.007,20.260 120.217 C 20.120 121.234,19.645 122.525,19.203 123.087 C 18.761 123.648,18.400 124.422,18.400 124.805 C 18.400 125.188,18.153 125.707,17.851 125.958 C 17.548 126.209,17.185 127.292,17.042 128.365 C 16.900 129.438,16.517 130.537,16.192 130.807 C 15.866 131.077,15.600 131.810,15.600 132.435 C 15.600 133.135,15.313 133.725,14.853 133.971 C 14.350 134.241,14.022 135.013,13.845 136.343 C 13.701 137.428,13.330 138.526,13.021 138.783 C 12.705 139.045,12.337 140.421,12.182 141.925 C 12.030 143.396,11.679 144.870,11.402 145.200 C 11.125 145.530,10.777 146.640,10.629 147.667 C 10.482 148.694,10.124 149.731,9.835 149.971 C 9.522 150.231,9.195 151.821,9.026 153.904 C 8.853 156.037,8.517 157.650,8.163 158.040 C 7.808 158.433,7.489 159.977,7.339 162.040 C 7.204 163.888,6.863 165.670,6.582 166.000 C 6.286 166.347,5.951 168.368,5.787 170.800 C 5.585 173.797,5.317 175.213,4.852 175.742 C 3.856 176.875,3.856 222.324,4.852 223.458 C 5.317 223.987,5.585 225.403,5.787 228.400 C 5.951 230.832,6.286 232.853,6.582 233.200 C 6.863 233.530,7.204 235.312,7.339 237.160 C 7.488 239.204,7.809 240.770,8.159 241.160 C 8.501 241.542,8.847 243.172,9.016 245.200 C 9.171 247.070,9.525 248.870,9.802 249.200 C 10.079 249.530,10.430 251.004,10.582 252.475 C 10.737 253.979,11.105 255.355,11.421 255.617 C 11.730 255.874,12.100 256.962,12.242 258.035 C 12.385 259.108,12.745 260.188,13.042 260.435 C 13.340 260.682,13.700 261.762,13.842 262.835 C 13.985 263.908,14.345 264.988,14.642 265.235 C 14.940 265.482,15.300 266.562,15.442 267.635 C 15.585 268.708,15.948 269.791,16.251 270.042 C 16.553 270.293,16.800 270.812,16.800 271.195 C 16.800 271.578,17.161 272.352,17.603 272.913 C 18.045 273.475,18.518 274.752,18.656 275.752 C 18.793 276.755,19.240 277.874,19.652 278.247 C 20.064 278.620,20.400 279.324,20.400 279.813 C 20.400 280.302,20.670 280.926,21.000 281.200 C 21.330 281.474,21.600 282.012,21.600 282.395 C 21.600 282.778,21.960 283.550,22.400 284.109 C 22.840 284.669,23.200 285.389,23.200 285.709 C 23.200 286.030,23.560 286.750,24.000 287.309 C 24.440 287.869,24.800 288.589,24.800 288.909 C 24.800 289.230,25.160 289.950,25.600 290.509 C 26.040 291.069,26.400 291.799,26.400 292.132 C 26.400 292.466,26.850 293.273,27.400 293.927 C 27.950 294.581,28.400 295.488,28.400 295.944 C 28.400 296.399,28.760 296.965,29.200 297.200 C 29.674 297.454,30.000 298.038,30.000 298.634 C 30.000 299.242,30.553 300.209,31.400 301.081 C 32.170 301.874,32.800 302.841,32.800 303.231 C 32.800 303.620,33.250 304.473,33.800 305.127 C 34.350 305.781,34.800 306.611,34.800 306.973 C 34.800 307.335,35.520 308.380,36.400 309.296 C 37.280 310.212,38.000 311.286,38.000 311.683 C 38.000 312.080,39.080 313.512,40.400 314.865 C 41.720 316.218,42.800 317.658,42.800 318.065 C 42.800 318.472,43.880 319.912,45.200 321.265 C 46.520 322.618,47.600 324.075,47.600 324.502 C 47.600 325.546,73.642 351.600,74.686 351.600 C 75.106 351.600,76.667 352.770,78.155 354.200 C 79.642 355.630,81.161 356.801,81.530 356.802 C 81.898 356.803,83.227 357.793,84.483 359.002 C 85.738 360.211,87.097 361.200,87.502 361.200 C 87.907 361.200,88.988 361.920,89.904 362.800 C 90.820 363.680,91.900 364.400,92.304 364.400 C 92.708 364.400,93.788 365.120,94.704 366.000 C 95.620 366.880,96.760 367.600,97.239 367.600 C 97.717 367.600,98.525 368.050,99.035 368.600 C 99.545 369.150,100.303 369.600,100.720 369.600 C 101.136 369.600,102.126 370.230,102.919 371.000 C 103.791 371.847,104.758 372.400,105.366 372.400 C 105.962 372.400,106.546 372.726,106.800 373.200 C 107.079 373.721,107.638 374.000,108.400 374.000 C 109.162 374.000,109.721 374.279,110.000 374.800 C 110.279 375.321,110.838 375.600,111.600 375.600 C 112.362 375.600,112.921 375.879,113.200 376.400 C 113.479 376.921,114.038 377.200,114.800 377.200 C 115.533 377.200,116.121 377.479,116.370 377.943 C 116.630 378.430,117.407 378.774,118.617 378.940 C 119.634 379.080,120.925 379.555,121.487 379.997 C 122.048 380.439,122.822 380.800,123.205 380.800 C 123.588 380.800,124.107 381.047,124.358 381.349 C 124.609 381.652,125.692 382.015,126.765 382.158 C 127.838 382.300,128.937 382.683,129.207 383.008 C 129.477 383.334,130.210 383.600,130.835 383.600 C 131.535 383.600,132.125 383.887,132.371 384.347 C 132.641 384.850,133.413 385.178,134.743 385.355 C 135.828 385.499,136.917 385.858,137.162 386.154 C 137.408 386.450,138.449 386.808,139.475 386.948 C 140.502 387.089,141.625 387.450,141.971 387.750 C 142.317 388.051,143.738 388.394,145.130 388.513 C 146.544 388.634,147.955 388.996,148.330 389.335 C 148.698 389.667,150.170 390.066,151.600 390.220 C 153.030 390.375,154.470 390.728,154.800 391.005 C 155.130 391.282,156.966 391.634,158.879 391.788 C 160.963 391.956,162.535 392.280,162.797 392.597 C 163.080 392.937,164.761 393.226,167.518 393.408 C 170.207 393.585,172.032 393.894,172.424 394.238 C 172.877 394.636,175.085 394.859,180.527 395.056 C 186.029 395.255,188.124 395.468,188.452 395.863 C 189.113 396.659,211.695 396.649,212.356 395.853 C 212.693 395.447,214.737 395.232,220.305 395.016 C 225.477 394.816,227.986 394.567,228.400 394.211 C 228.751 393.910,230.743 393.578,233.200 393.413 C 235.670 393.246,237.647 392.916,238.000 392.612 C 238.330 392.327,239.804 391.970,241.275 391.818 C 242.747 391.666,244.145 391.308,244.382 391.022 C 244.619 390.736,246.056 390.380,247.575 390.230 C 249.094 390.080,250.534 389.720,250.775 389.430 C 251.016 389.140,252.456 388.780,253.975 388.630 C 255.582 388.472,256.935 388.119,257.211 387.787 C 257.471 387.473,258.562 387.100,259.635 386.958 C 260.708 386.815,261.788 386.455,262.035 386.158 C 262.282 385.860,263.362 385.500,264.435 385.358 C 265.508 385.215,266.588 384.855,266.835 384.558 C 267.082 384.260,268.172 383.899,269.257 383.755 C 270.587 383.578,271.359 383.250,271.629 382.747 C 271.875 382.287,272.465 382.000,273.165 382.000 C 273.790 382.000,274.523 381.734,274.793 381.408 C 275.063 381.083,276.172 380.699,277.257 380.555 C 278.587 380.378,279.359 380.050,279.629 379.547 C 279.879 379.079,280.466 378.800,281.200 378.800 C 281.962 378.800,282.521 378.521,282.800 378.000 C 283.079 377.479,283.638 377.200,284.400 377.200 C 285.162 377.200,285.721 376.921,286.000 376.400 C 286.279 375.879,286.838 375.600,287.600 375.600 C 288.362 375.600,288.921 375.321,289.200 374.800 C 289.479 374.279,290.038 374.000,290.800 374.000 C 291.562 374.000,292.121 373.721,292.400 373.200 C 292.679 372.679,293.238 372.400,294.000 372.400 C 294.762 372.400,295.321 372.121,295.600 371.600 C 295.854 371.126,296.438 370.800,297.034 370.800 C 297.642 370.800,298.609 370.247,299.481 369.400 C 300.274 368.630,301.264 368.000,301.680 368.000 C 302.097 368.000,302.855 367.550,303.365 367.000 C 303.875 366.450,304.683 366.000,305.161 366.000 C 305.640 366.000,306.780 365.280,307.696 364.400 C 308.612 363.520,309.689 362.800,310.089 362.800 C 310.490 362.800,311.823 361.810,313.053 360.600 C 314.282 359.390,315.615 358.400,316.014 358.400 C 316.414 358.400,317.958 357.230,319.445 355.800 C 320.933 354.370,322.472 353.200,322.865 353.200 C 323.258 353.200,325.789 351.041,328.490 348.403 C 331.190 345.765,333.720 343.605,334.111 343.603 C 335.039 343.599,342.000 336.636,342.000 335.711 C 342.001 335.320,344.521 332.428,347.600 329.284 C 350.680 326.140,353.200 323.249,353.200 322.859 C 353.200 322.469,354.370 320.933,355.800 319.445 C 357.230 317.958,358.400 316.431,358.400 316.053 C 358.400 315.674,359.120 314.592,360.000 313.649 C 360.880 312.705,361.600 311.608,361.600 311.210 C 361.600 310.813,362.590 309.482,363.800 308.253 C 365.277 306.751,366.000 305.690,366.000 305.023 C 366.000 304.439,366.329 303.852,366.795 303.603 C 367.233 303.368,367.710 302.687,367.856 302.088 C 368.002 301.490,368.455 300.571,368.861 300.046 C 369.267 299.521,369.600 298.784,369.600 298.407 C 369.600 298.031,370.230 297.074,371.000 296.281 C 371.847 295.409,372.400 294.442,372.400 293.834 C 372.400 293.238,372.726 292.654,373.200 292.400 C 373.721 292.121,374.000 291.562,374.000 290.800 C 374.000 290.038,374.279 289.479,374.800 289.200 C 375.321 288.921,375.600 288.362,375.600 287.600 C 375.600 286.838,375.879 286.279,376.400 286.000 C 376.921 285.721,377.200 285.162,377.200 284.400 C 377.200 283.638,377.479 283.079,378.000 282.800 C 378.521 282.521,378.800 281.962,378.800 281.200 C 378.800 280.466,379.079 279.879,379.547 279.629 C 380.050 279.359,380.378 278.587,380.555 277.257 C 380.699 276.172,381.083 275.063,381.408 274.793 C 381.734 274.523,382.000 273.790,382.000 273.165 C 382.000 272.465,382.287 271.875,382.747 271.629 C 383.250 271.359,383.578 270.587,383.755 269.257 C 383.899 268.172,384.260 267.082,384.558 266.835 C 384.855 266.588,385.215 265.508,385.358 264.435 C 385.500 263.362,385.860 262.282,386.158 262.035 C 386.455 261.788,386.815 260.708,386.958 259.635 C 387.100 258.562,387.473 257.471,387.787 257.211 C 388.119 256.935,388.472 255.582,388.630 253.975 C 388.780 252.456,389.136 251.019,389.422 250.782 C 389.708 250.545,390.066 249.147,390.218 247.675 C 390.370 246.204,390.746 244.712,391.055 244.360 C 391.387 243.981,391.716 242.347,391.861 240.360 C 391.996 238.512,392.337 236.730,392.618 236.400 C 392.914 236.053,393.249 234.032,393.413 231.600 C 393.594 228.912,393.899 227.168,394.261 226.754 C 394.693 226.260,394.880 224.060,395.060 217.354 C 395.232 210.935,395.442 208.364,395.847 207.714 C 396.640 206.444,396.636 194.347,395.842 193.086 C 395.427 192.425,395.238 189.987,395.100 183.495 C 394.951 176.492,394.797 174.654,394.310 174.095 C 393.877 173.598,393.629 171.982,393.436 168.414 C 393.256 165.074,392.986 163.225,392.617 162.814 C 392.302 162.463,391.946 160.745,391.784 158.800 C 391.614 156.749,391.269 155.134,390.916 154.730 C 390.593 154.361,390.232 152.921,390.113 151.530 C 389.994 150.138,389.658 148.725,389.367 148.390 C 389.076 148.054,388.716 146.974,388.566 145.990 C 388.416 145.005,388.069 143.930,387.794 143.600 C 387.519 143.270,387.170 141.796,387.018 140.325 C 386.863 138.821,386.495 137.445,386.179 137.183 C 385.870 136.926,385.499 135.828,385.355 134.743 C 385.178 133.413,384.850 132.641,384.347 132.371 C 383.887 132.125,383.600 131.535,383.600 130.835 C 383.600 130.210,383.334 129.477,383.008 129.207 C 382.683 128.937,382.299 127.828,382.155 126.743 C 381.978 125.413,381.650 124.641,381.147 124.371 C 380.687 124.125,380.400 123.535,380.400 122.835 C 380.400 122.210,380.130 121.474,379.800 121.200 C 379.470 120.926,379.200 120.388,379.200 120.005 C 379.200 119.622,378.840 118.850,378.400 118.291 C 377.960 117.731,377.600 117.011,377.600 116.691 C 377.600 116.370,377.240 115.650,376.800 115.091 C 376.360 114.531,376.000 113.811,376.000 113.491 C 376.000 113.170,375.640 112.450,375.200 111.891 C 374.760 111.331,374.400 110.611,374.400 110.291 C 374.400 109.970,374.040 109.250,373.600 108.691 C 373.160 108.131,372.800 107.411,372.800 107.091 C 372.800 106.770,372.440 106.050,372.000 105.491 C 371.560 104.931,371.200 104.201,371.200 103.868 C 371.200 103.534,370.750 102.727,370.200 102.073 C 369.650 101.419,369.200 100.587,369.200 100.222 C 369.200 99.858,368.570 98.912,367.800 98.119 C 367.030 97.326,366.400 96.359,366.400 95.969 C 366.400 95.580,365.950 94.727,365.400 94.073 C 364.850 93.419,364.400 92.589,364.400 92.227 C 364.400 91.865,363.680 90.820,362.800 89.904 C 361.920 88.988,361.200 87.914,361.200 87.517 C 361.200 87.120,360.120 85.688,358.800 84.335 C 357.480 82.982,356.400 81.542,356.400 81.135 C 356.400 80.728,355.320 79.288,354.000 77.935 C 352.680 76.582,351.600 75.133,351.600 74.715 C 351.600 73.725,327.112 49.200,326.122 49.199 C 325.725 49.199,323.914 47.759,322.097 45.999 C 320.280 44.240,318.480 42.800,318.096 42.800 C 317.712 42.800,316.529 41.990,315.465 41.000 C 314.402 40.010,313.208 39.200,312.810 39.200 C 312.413 39.200,311.082 38.210,309.853 37.000 C 308.536 35.704,307.263 34.800,306.754 34.800 C 306.280 34.800,305.475 34.350,304.965 33.800 C 304.455 33.250,303.697 32.800,303.280 32.800 C 302.864 32.800,301.874 32.170,301.081 31.400 C 300.209 30.553,299.242 30.000,298.634 30.000 C 298.038 30.000,297.454 29.674,297.200 29.200 C 296.965 28.760,296.399 28.400,295.944 28.400 C 295.488 28.400,294.581 27.950,293.927 27.400 C 293.273 26.850,292.466 26.400,292.132 26.400 C 291.799 26.400,291.069 26.040,290.509 25.600 C 289.950 25.160,289.230 24.800,288.909 24.800 C 288.589 24.800,287.869 24.440,287.309 24.000 C 286.750 23.560,286.030 23.200,285.709 23.200 C 285.389 23.200,284.669 22.840,284.109 22.400 C 283.550 21.960,282.778 21.600,282.395 21.600 C 282.012 21.600,281.474 21.330,281.200 21.000 C 280.926 20.670,280.190 20.400,279.565 20.400 C 278.865 20.400,278.275 20.113,278.029 19.653 C 277.759 19.150,276.987 18.822,275.657 18.645 C 274.572 18.501,273.463 18.117,273.193 17.792 C 272.923 17.466,272.190 17.200,271.565 17.200 C 270.865 17.200,270.275 16.913,270.029 16.453 C 269.759 15.950,268.987 15.622,267.657 15.445 C 266.572 15.301,265.482 14.940,265.235 14.642 C 264.988 14.345,263.908 13.985,262.835 13.842 C 261.762 13.700,260.683 13.342,260.438 13.046 C 260.192 12.750,259.151 12.392,258.125 12.252 C 257.098 12.111,255.975 11.750,255.629 11.450 C 255.283 11.149,253.862 10.806,252.470 10.687 C 251.056 10.566,249.645 10.204,249.270 9.865 C 248.902 9.533,247.430 9.134,246.000 8.980 C 244.570 8.825,243.130 8.474,242.800 8.198 C 242.470 7.923,240.670 7.571,238.800 7.416 C 236.930 7.260,235.130 6.899,234.800 6.614 C 234.422 6.287,232.349 5.989,229.200 5.811 C 225.478 5.599,224.016 5.363,223.481 4.884 C 222.767 4.246,190.553 3.796,179.813 4.274 M204.000 74.533 C 205.615 75.220,204.443 74.557,229.200 88.787 C 239.650 94.793,251.260 101.550,255.000 103.802 C 258.740 106.054,264.500 109.384,267.800 111.203 C 280.350 118.120,302.508 130.971,305.414 133.018 C 307.113 134.214,308.179 135.352,309.014 136.859 L 310.200 139.000 310.200 200.000 L 310.200 261.000 309.079 262.908 C 307.404 265.756,305.488 267.060,288.956 276.604 C 280.620 281.416,269.570 287.808,264.400 290.809 C 259.230 293.810,249.600 299.389,243.000 303.208 C 236.400 307.026,227.760 312.026,223.800 314.318 C 201.811 327.048,202.785 326.581,198.800 326.301 C 195.540 326.072,195.633 326.119,176.000 314.691 C 167.310 309.632,154.890 302.402,148.400 298.624 C 141.910 294.845,127.166 286.274,115.635 279.577 C 92.374 266.067,90.963 265.059,89.823 261.139 C 89.252 259.175,89.198 252.818,89.294 198.976 L 89.400 139.000 90.260 137.395 C 92.341 133.510,85.752 137.553,167.200 90.178 C 199.333 71.488,198.087 72.018,204.000 74.533 M197.094 87.631 C 194.616 88.222,189.432 91.186,117.200 133.309 C 104.146 140.921,102.946 141.892,101.789 145.773 C 100.863 148.874,100.909 250.860,101.837 254.027 C 102.984 257.942,104.920 259.377,124.013 270.462 C 133.356 275.886,152.430 286.977,166.400 295.109 C 198.017 313.512,195.450 312.177,199.248 312.190 C 203.043 312.202,200.881 313.314,232.400 295.141 C 245.930 287.340,264.983 276.377,274.740 270.779 C 292.776 260.430,295.724 258.428,297.320 255.445 L 298.200 253.800 298.306 200.822 C 298.426 140.701,298.639 144.860,295.264 141.599 C 294.239 140.608,290.430 138.062,286.800 135.941 C 276.569 129.962,253.782 116.738,250.000 114.584 C 248.130 113.519,241.110 109.470,234.400 105.586 C 201.602 86.603,201.536 86.571,197.094 87.631 M236.836 127.607 C 242.431 128.668,243.103 129.992,247.466 148.557 C 253.075 172.422,253.593 171.525,233.800 172.180 C 217.918 172.706,182.352 172.690,165.600 172.151 C 144.982 171.487,145.483 172.210,150.376 150.200 C 154.932 129.703,155.396 128.701,160.834 127.634 C 163.407 127.129,234.183 127.104,236.836 127.607 M220.088 178.418 C 225.610 179.951,225.780 182.598,221.201 195.696 C 218.550 203.276,218.415 204.992,219.601 216.073 C 221.163 230.678,220.804 231.029,204.000 231.329 C 177.464 231.803,176.887 231.440,179.007 215.600 C 180.388 205.282,180.105 202.782,176.449 193.000 C 172.946 183.628,173.273 180.218,177.833 178.593 C 179.793 177.895,217.640 177.738,220.088 178.418 M150.409 190.366 C 153.875 192.059,165.758 199.859,167.608 201.654 C 170.828 204.779,171.481 208.252,171.580 222.800 C 171.642 231.871,172.505 233.582,181.898 243.276 C 193.924 255.686,193.247 259.616,176.651 273.706 C 172.926 276.868,170.481 277.899,165.889 278.244 C 157.680 278.859,154.908 277.070,149.566 267.713 C 148.338 265.561,142.323 255.070,136.201 244.400 C 130.079 233.730,123.848 222.868,122.354 220.263 C 116.107 209.361,116.343 208.670,129.839 198.397 C 143.427 188.053,144.678 187.565,150.409 190.366 M256.600 189.812 C 260.775 191.781,277.802 205.344,279.031 207.680 C 280.948 211.321,281.122 210.942,262.803 243.015 C 246.452 271.642,244.700 274.537,242.935 275.835 C 237.489 279.841,228.175 278.881,222.009 273.677 C 205.192 259.485,204.597 255.599,217.245 242.568 C 226.867 232.655,226.605 233.330,227.156 216.966 C 227.621 203.167,227.455 203.455,239.677 195.318 C 249.901 188.512,252.233 187.753,256.600 189.812 " stroke="none" fill="#fba413" fill-rule="evenodd"></path></g></svg>